<svg width="30" height="20" viewBox="0 0 30 20" fill="none" xmlns="http://www.w3.org/2000/svg">
<path d="M1.57895 0C0.706934 0 0 0.577677 0 1.29032C0 2.00297 0.706934 2.58065 1.57895 2.58065H28.4211C29.2931 2.58065 30 2.00297 30 1.29032C30 0.577677 29.2931 0 28.4211 0H1.57895ZM1.57895 8.70968C0.706934 8.70968 0 9.28735 0 10C0 10.7126 0.706934 11.2903 1.57895 11.2903H28.4211C29.2931 11.2903 30 10.7126 30 10C30 9.28735 29.2931 8.70968 28.4211 8.70968H1.57895ZM1.57895 17.4194C0.706934 17.4194 0 17.997 0 18.7097C0 19.4223 0.706934 20 1.57895 20H28.4211C29.2931 20 30 19.4223 30 18.7097C30 17.997 29.2931 17.4194 28.4211 17.4194H1.57895Z" fill="black"/>
</svg>
