<svg width="16" height="16" viewBox="0 0 16 16" fill="none" xmlns="http://www.w3.org/2000/svg">
<path d="M15.5462 13.3678L10.1871 8.00463L15.5462 2.64144C16.1513 2.03591 16.1513 1.05966 15.5462 0.454142C14.9412 -0.151381 13.9657 -0.151381 13.3606 0.454142L8.00154 5.81734L2.64248 0.454142C2.03743 -0.151381 1.06193 -0.151381 0.456879 0.454142C-0.148176 1.05966 -0.148176 2.03591 0.456879 2.64144L5.81594 8.00463L0.456879 13.3678C0.172873 13.6521 0 14.0475 0 14.4553C0 15.308 0.691491 16 1.54351 16C1.95099 16 2.34613 15.8394 2.63014 15.5428L7.98919 10.1796L13.3483 15.5428C13.6323 15.827 14.0274 16 14.4349 16C14.8424 16 15.2375 15.8394 15.5215 15.5428C16.1513 14.9496 16.1513 13.9734 15.5462 13.3678Z" fill="black"/>
</svg>
