<svg width="163" height="40" viewBox="0 0 163 40" fill="none" xmlns="http://www.w3.org/2000/svg">
<path d="M35.593 21.16C35.593 20.3737 35.7393 19.6834 36.0318 19.0891C36.3336 18.4949 36.7404 18.0377 37.2524 17.7177C37.7644 17.3977 38.3358 17.2377 38.9667 17.2377C39.5061 17.2377 39.977 17.3474 40.3793 17.5669C40.7907 17.7863 41.1061 18.0743 41.3256 18.4309V17.3474H43.6707V25H41.3256V23.9166C41.097 24.2731 40.777 24.5611 40.3656 24.7806C39.9633 25 39.4924 25.1097 38.953 25.1097C38.3313 25.1097 37.7644 24.9497 37.2524 24.6297C36.7404 24.3006 36.3336 23.8389 36.0318 23.2446C35.7393 22.6411 35.593 21.9463 35.593 21.16ZM41.3256 21.1737C41.3256 20.5886 41.161 20.1269 40.8318 19.7886C40.5118 19.4503 40.1187 19.2811 39.6524 19.2811C39.1861 19.2811 38.7884 19.4503 38.4593 19.7886C38.1393 20.1177 37.9793 20.5749 37.9793 21.16C37.9793 21.7451 38.1393 22.2114 38.4593 22.5589C38.7884 22.8971 39.1861 23.0663 39.6524 23.0663C40.1187 23.0663 40.5118 22.8971 40.8318 22.5589C41.161 22.2206 41.3256 21.7589 41.3256 21.1737ZM44.901 21.16C44.901 20.3737 45.0473 19.6834 45.3399 19.0891C45.6416 18.4949 46.0484 18.0377 46.5604 17.7177C47.0724 17.3977 47.6439 17.2377 48.2747 17.2377C48.7776 17.2377 49.2347 17.3429 49.6462 17.5531C50.0667 17.7634 50.3959 18.0469 50.6336 18.4034V14.8514H52.9787V25H50.6336V23.9029C50.4142 24.2686 50.0987 24.5611 49.6873 24.7806C49.285 25 48.8142 25.1097 48.2747 25.1097C47.6439 25.1097 47.0724 24.9497 46.5604 24.6297C46.0484 24.3006 45.6416 23.8389 45.3399 23.2446C45.0473 22.6411 44.901 21.9463 44.901 21.16ZM50.6336 21.1737C50.6336 20.5886 50.469 20.1269 50.1399 19.7886C49.8199 19.4503 49.4267 19.2811 48.9604 19.2811C48.4942 19.2811 48.0964 19.4503 47.7673 19.7886C47.4473 20.1177 47.2873 20.5749 47.2873 21.16C47.2873 21.7451 47.4473 22.2114 47.7673 22.5589C48.0964 22.8971 48.4942 23.0663 48.9604 23.0663C49.4267 23.0663 49.8199 22.8971 50.1399 22.5589C50.469 22.2206 50.6336 21.7589 50.6336 21.1737ZM54.2091 21.16C54.2091 20.3737 54.3553 19.6834 54.6479 19.0891C54.9496 18.4949 55.3565 18.0377 55.8685 17.7177C56.3805 17.3977 56.9519 17.2377 57.5828 17.2377C58.0856 17.2377 58.5428 17.3429 58.9542 17.5531C59.3748 17.7634 59.7039 18.0469 59.9416 18.4034V14.8514H62.2868V25H59.9416V23.9029C59.7222 24.2686 59.4068 24.5611 58.9953 24.7806C58.5931 25 58.1222 25.1097 57.5828 25.1097C56.9519 25.1097 56.3805 24.9497 55.8685 24.6297C55.3565 24.3006 54.9496 23.8389 54.6479 23.2446C54.3553 22.6411 54.2091 21.9463 54.2091 21.16ZM59.9416 21.1737C59.9416 20.5886 59.7771 20.1269 59.4479 19.7886C59.1279 19.4503 58.7348 19.2811 58.2685 19.2811C57.8022 19.2811 57.4045 19.4503 57.0753 19.7886C56.7553 20.1177 56.5953 20.5749 56.5953 21.16C56.5953 21.7451 56.7553 22.2114 57.0753 22.5589C57.4045 22.8971 57.8022 23.0663 58.2685 23.0663C58.7348 23.0663 59.1279 22.8971 59.4479 22.5589C59.7771 22.2206 59.9416 21.7589 59.9416 21.1737ZM65.1628 16.552C64.7514 16.552 64.4131 16.4331 64.1479 16.1954C63.8919 15.9486 63.7639 15.6469 63.7639 15.2903C63.7639 14.9246 63.8919 14.6229 64.1479 14.3851C64.4131 14.1383 64.7514 14.0149 65.1628 14.0149C65.5651 14.0149 65.8942 14.1383 66.1502 14.3851C66.4154 14.6229 66.5479 14.9246 66.5479 15.2903C66.5479 15.6469 66.4154 15.9486 66.1502 16.1954C65.8942 16.4331 65.5651 16.552 65.1628 16.552ZM66.3285 17.3474V25H63.9834V17.3474H66.3285ZM67.5617 21.1737C67.5617 20.3783 67.7217 19.6834 68.0417 19.0891C68.3709 18.4949 68.8234 18.0377 69.3994 17.7177C69.9846 17.3977 70.652 17.2377 71.4017 17.2377C72.3617 17.2377 73.1617 17.4891 73.8017 17.992C74.4509 18.4949 74.876 19.2034 75.0772 20.1177H72.5812C72.3709 19.5326 71.964 19.24 71.3606 19.24C70.9309 19.24 70.588 19.4091 70.332 19.7474C70.076 20.0766 69.948 20.552 69.948 21.1737C69.948 21.7954 70.076 22.2754 70.332 22.6137C70.588 22.9429 70.9309 23.1074 71.3606 23.1074C71.964 23.1074 72.3709 22.8149 72.5812 22.2297H75.0772C74.876 23.1257 74.4509 23.8297 73.8017 24.3417C73.1526 24.8537 72.3526 25.1097 71.4017 25.1097C70.652 25.1097 69.9846 24.9497 69.3994 24.6297C68.8234 24.3097 68.3709 23.8526 68.0417 23.2583C67.7217 22.664 67.5617 21.9691 67.5617 21.1737ZM80.5967 23.0114V25H79.4036C78.5533 25 77.8904 24.7943 77.415 24.3829C76.9396 23.9623 76.7019 23.2811 76.7019 22.3394V19.2949H75.7693V17.3474H76.7019V15.4823H79.047V17.3474H80.583V19.2949H79.047V22.3669C79.047 22.5954 79.1019 22.76 79.2116 22.8606C79.3213 22.9611 79.5042 23.0114 79.7602 23.0114H80.5967ZM83.0824 16.552C82.671 16.552 82.3327 16.4331 82.0676 16.1954C81.8116 15.9486 81.6836 15.6469 81.6836 15.2903C81.6836 14.9246 81.8116 14.6229 82.0676 14.3851C82.3327 14.1383 82.671 14.0149 83.0824 14.0149C83.4847 14.0149 83.8139 14.1383 84.0699 14.3851C84.335 14.6229 84.4676 14.9246 84.4676 15.2903C84.4676 15.6469 84.335 15.9486 84.0699 16.1954C83.8139 16.4331 83.4847 16.552 83.0824 16.552ZM84.2482 17.3474V25H81.903V17.3474H84.2482ZM89.3899 22.8057L91.0494 17.3474H93.5454L90.8299 25H87.9362L85.2208 17.3474H87.7305L89.3899 22.8057ZM101.746 21.0503C101.746 21.2697 101.732 21.4983 101.705 21.736H96.3976C96.4342 22.2114 96.5851 22.5771 96.8502 22.8331C97.1245 23.08 97.4582 23.2034 97.8513 23.2034C98.4365 23.2034 98.8433 22.9566 99.0719 22.4629H101.568C101.44 22.9657 101.207 23.4183 100.868 23.8206C100.539 24.2229 100.123 24.5383 99.6205 24.7669C99.1176 24.9954 98.5553 25.1097 97.9336 25.1097C97.1839 25.1097 96.5165 24.9497 95.9313 24.6297C95.3462 24.3097 94.8891 23.8526 94.5599 23.2583C94.2308 22.664 94.0662 21.9691 94.0662 21.1737C94.0662 20.3783 94.2262 19.6834 94.5462 19.0891C94.8753 18.4949 95.3325 18.0377 95.9176 17.7177C96.5028 17.3977 97.1748 17.2377 97.9336 17.2377C98.6742 17.2377 99.3325 17.3931 99.9085 17.704C100.484 18.0149 100.932 18.4583 101.252 19.0343C101.582 19.6103 101.746 20.2823 101.746 21.0503ZM99.3462 20.4331C99.3462 20.0309 99.2091 19.7109 98.9348 19.4731C98.6605 19.2354 98.3176 19.1166 97.9062 19.1166C97.5131 19.1166 97.1793 19.2309 96.9051 19.4594C96.6399 19.688 96.4753 20.0126 96.4113 20.4331H99.3462ZM107.343 14.8514V25H106.095V14.8514H107.343ZM116.327 20.9543C116.327 21.192 116.314 21.4434 116.286 21.7086H110.279C110.325 22.4491 110.577 23.0297 111.034 23.4503C111.5 23.8617 112.062 24.0674 112.721 24.0674C113.26 24.0674 113.708 23.944 114.065 23.6971C114.43 23.4411 114.686 23.1029 114.833 22.6823H116.177C115.975 23.4046 115.573 23.9943 114.97 24.4514C114.366 24.8994 113.617 25.1234 112.721 25.1234C112.007 25.1234 111.367 24.9634 110.801 24.6434C110.243 24.3234 109.804 23.8709 109.484 23.2857C109.164 22.6914 109.004 22.0057 109.004 21.2286C109.004 20.4514 109.159 19.7703 109.47 19.1851C109.781 18.6 110.215 18.152 110.773 17.8411C111.34 17.5211 111.989 17.3611 112.721 17.3611C113.434 17.3611 114.065 17.5166 114.613 17.8274C115.162 18.1383 115.582 18.568 115.875 19.1166C116.177 19.656 116.327 20.2686 116.327 20.9543ZM115.038 20.6937C115.038 20.2183 114.933 19.8114 114.723 19.4731C114.513 19.1257 114.225 18.8651 113.859 18.6914C113.502 18.5086 113.105 18.4171 112.666 18.4171C112.035 18.4171 111.495 18.6183 111.047 19.0206C110.609 19.4229 110.357 19.9806 110.293 20.6937H115.038ZM117.509 21.2149C117.509 20.4469 117.664 19.7749 117.975 19.1989C118.286 18.6137 118.711 18.1611 119.25 17.8411C119.799 17.5211 120.407 17.3611 121.074 17.3611C121.733 17.3611 122.304 17.5029 122.789 17.7863C123.273 18.0697 123.634 18.4263 123.872 18.856V17.4846H125.134V25H123.872V23.6011C123.625 24.04 123.255 24.4057 122.761 24.6983C122.277 24.9817 121.71 25.1234 121.061 25.1234C120.393 25.1234 119.79 24.9589 119.25 24.6297C118.711 24.3006 118.286 23.8389 117.975 23.2446C117.664 22.6503 117.509 21.9737 117.509 21.2149ZM123.872 21.2286C123.872 20.6617 123.758 20.168 123.529 19.7474C123.301 19.3269 122.99 19.0069 122.597 18.7874C122.213 18.5589 121.787 18.4446 121.321 18.4446C120.855 18.4446 120.43 18.5543 120.046 18.7737C119.662 18.9931 119.355 19.3131 119.127 19.7337C118.898 20.1543 118.784 20.648 118.784 21.2149C118.784 21.7909 118.898 22.2937 119.127 22.7234C119.355 23.144 119.662 23.4686 120.046 23.6971C120.43 23.9166 120.855 24.0263 121.321 24.0263C121.787 24.0263 122.213 23.9166 122.597 23.6971C122.99 23.4686 123.301 23.144 123.529 22.7234C123.758 22.2937 123.872 21.7954 123.872 21.2286ZM128.491 18.7051C128.71 18.2754 129.021 17.9417 129.423 17.704C129.835 17.4663 130.333 17.3474 130.918 17.3474V18.6366H130.589C129.19 18.6366 128.491 19.3954 128.491 20.9131V25H127.243V17.4846H128.491V18.7051ZM136.02 17.3474C136.935 17.3474 137.675 17.6263 138.242 18.184C138.809 18.7326 139.092 19.528 139.092 20.5703V25H137.858V20.7486C137.858 19.9989 137.671 19.4274 137.296 19.0343C136.921 18.632 136.409 18.4309 135.76 18.4309C135.102 18.4309 134.576 18.6366 134.183 19.048C133.799 19.4594 133.607 20.0583 133.607 20.8446V25H132.359V17.4846H133.607V18.5543C133.854 18.1703 134.187 17.8731 134.608 17.6629C135.038 17.4526 135.508 17.3474 136.02 17.3474ZM141.776 16.264C141.538 16.264 141.337 16.1817 141.172 16.0171C141.008 15.8526 140.925 15.6514 140.925 15.4137C140.925 15.176 141.008 14.9749 141.172 14.8103C141.337 14.6457 141.538 14.5634 141.776 14.5634C142.004 14.5634 142.196 14.6457 142.352 14.8103C142.516 14.9749 142.598 15.176 142.598 15.4137C142.598 15.6514 142.516 15.8526 142.352 16.0171C142.196 16.1817 142.004 16.264 141.776 16.264ZM142.379 17.4846V25H141.131V17.4846H142.379ZM148.168 17.3474C149.082 17.3474 149.823 17.6263 150.389 18.184C150.956 18.7326 151.24 19.528 151.24 20.5703V25H150.005V20.7486C150.005 19.9989 149.818 19.4274 149.443 19.0343C149.068 18.632 148.556 18.4309 147.907 18.4309C147.249 18.4309 146.723 18.6366 146.33 19.048C145.946 19.4594 145.754 20.0583 145.754 20.8446V25H144.506V17.4846H145.754V18.5543C146.001 18.1703 146.335 17.8731 146.755 17.6629C147.185 17.4526 147.656 17.3474 148.168 17.3474ZM156.378 17.3611C157.027 17.3611 157.594 17.5029 158.078 17.7863C158.572 18.0697 158.938 18.4263 159.176 18.856V17.4846H160.437V25.1646C160.437 25.8503 160.291 26.4583 159.998 26.9886C159.706 27.528 159.285 27.9486 158.737 28.2503C158.197 28.552 157.566 28.7029 156.844 28.7029C155.857 28.7029 155.034 28.4697 154.376 28.0034C153.717 27.5371 153.329 26.9017 153.21 26.0971H154.444C154.581 26.5543 154.865 26.92 155.294 27.1943C155.724 27.4777 156.241 27.6194 156.844 27.6194C157.53 27.6194 158.088 27.4046 158.517 26.9749C158.956 26.5451 159.176 25.9417 159.176 25.1646V23.5874C158.929 24.0263 158.563 24.392 158.078 24.6846C157.594 24.9771 157.027 25.1234 156.378 25.1234C155.71 25.1234 155.102 24.9589 154.554 24.6297C154.014 24.3006 153.589 23.8389 153.278 23.2446C152.968 22.6503 152.812 21.9737 152.812 21.2149C152.812 20.4469 152.968 19.7749 153.278 19.1989C153.589 18.6137 154.014 18.1611 154.554 17.8411C155.102 17.5211 155.71 17.3611 156.378 17.3611ZM159.176 21.2286C159.176 20.6617 159.061 20.168 158.833 19.7474C158.604 19.3269 158.293 19.0069 157.9 18.7874C157.516 18.5589 157.091 18.4446 156.625 18.4446C156.158 18.4446 155.733 18.5543 155.349 18.7737C154.965 18.9931 154.659 19.3131 154.43 19.7337C154.202 20.1543 154.088 20.648 154.088 21.2149C154.088 21.7909 154.202 22.2937 154.43 22.7234C154.659 23.144 154.965 23.4686 155.349 23.6971C155.733 23.9166 156.158 24.0263 156.625 24.0263C157.091 24.0263 157.516 23.9166 157.9 23.6971C158.293 23.4686 158.604 23.144 158.833 22.7234C159.061 22.2937 159.176 21.7954 159.176 21.2286Z" fill="black"/>
<g clip-path="url(#clip0)">
<path d="M20.1186 3.65601H19.4409C19.5352 3.90942 19.5856 4.17652 19.5902 4.44628L20.2023 35.9379C20.2138 36.5801 19.9657 37.2006 19.5124 37.6634C19.0591 38.1262 18.4375 38.3936 17.7839 38.4069L5.8999 38.6295C6.10169 39.0401 6.41716 39.3866 6.81014 39.6292C7.20312 39.8718 7.65772 40.0007 8.12184 40.0011H20.1186C20.7737 40.0011 21.4019 39.7455 21.8651 39.2904C22.3283 38.8353 22.5886 38.218 22.5886 37.5744V6.07958C22.5877 5.43652 22.3271 4.82008 21.864 4.36566C21.4009 3.91124 20.7731 3.65601 20.1186 3.65601Z" fill="#6CC5D7"/>
<path d="M5.65735 37.0593L4.97112 37.1079C4.3799 37.151 3.79277 36.9824 3.31836 36.6331C3.42176 37.1999 3.72699 37.7122 4.17949 38.0783C4.63199 38.4444 5.20226 38.6405 5.78837 38.6314H5.89576C5.73382 38.3025 5.65009 37.9417 5.65091 37.5763L5.65735 37.0593Z" fill="#38B289"/>
<path d="M17.0828 4.84916H17.405C17.9527 4.84916 18.4102 4.48937 18.4607 4.0188L18.4983 3.65584H19.4412C19.2631 3.18388 18.94 2.77801 18.5167 2.49445C18.0934 2.21089 17.5908 2.06368 17.0786 2.07319H16.8691C16.8777 2.13016 16.8842 2.18714 16.8885 2.24517L17.0828 4.84916Z" fill="#38B289"/>
<path d="M20.2044 35.9379L19.5901 4.44628C19.5849 4.1764 19.5337 3.90929 19.4387 3.65601H18.4958L18.4582 4.01896C18.4078 4.48954 17.9503 4.84933 17.4026 4.84933H17.0804L19.2143 33.661C19.2607 34.3016 19.0468 34.9341 18.6195 35.42C18.1921 35.9059 17.5862 36.2056 16.9343 36.2534L5.65821 37.0595V37.5765C5.65739 37.9419 5.74112 38.3027 5.90306 38.6316L17.787 38.409C18.4408 38.3954 19.0625 38.1276 19.5157 37.6644C19.9688 37.2012 20.2165 36.5803 20.2044 35.9379Z" fill="#008F7B"/>
<path d="M2.66878 4.76384C2.65728 4.12074 2.90611 3.49946 3.3606 3.03651C3.81509 2.57356 4.43806 2.30682 5.09261 2.2949L6.71208 2.2643L6.75718 2.6262C6.81625 3.09572 7.28125 3.44812 7.8311 3.43757L14.397 3.31413C14.9447 3.30357 15.3958 2.93534 15.4355 2.46371L15.4667 2.10076L16.8778 2.07438C16.7872 1.46862 16.467 0.918877 15.9812 0.535355C15.4955 0.151833 14.8801 -0.0371184 14.2585 0.00638058L12.6476 0.121386L12.6369 0.486451C12.6218 0.959137 12.1923 1.35058 11.6457 1.38962L5.09476 1.85808C4.54813 1.89712 4.06487 1.57004 3.98111 1.10474L3.9156 0.744952L2.29935 0.861013C1.64753 0.90881 1.04158 1.20849 0.614232 1.69441C0.186886 2.18032 -0.0270022 2.81284 0.0194282 3.4534L2.33264 34.867C2.35736 35.2144 2.45826 35.5526 2.62842 35.8582C2.79859 36.1638 3.03399 36.4296 3.3185 36.6374C3.29663 36.5126 3.28407 36.3863 3.28091 36.2597L2.66878 4.76384Z" fill="#E00060"/>
<path d="M4.97122 37.1081L5.65746 37.0595V6.07962C5.65746 5.43601 5.91769 4.81876 6.38091 4.36366C6.84412 3.90856 7.47238 3.65289 8.12747 3.65289H9.74801L9.7856 4.01584C9.83607 4.48642 10.2936 4.84621 10.8413 4.84621H17.0861L16.8928 2.24327C16.8928 2.18524 16.882 2.12826 16.8735 2.07129L15.4623 2.09767L15.4312 2.46062C15.3914 2.93225 14.9404 3.3047 14.3927 3.31103L7.82677 3.43448C7.27907 3.44503 6.81406 3.09263 6.75285 2.62311L6.70775 2.26121L5.08828 2.29181C4.43466 2.30511 3.81307 2.57246 3.35974 3.03525C2.90641 3.49805 2.65831 4.11854 2.66982 4.76075L3.28195 36.2524C3.28511 36.379 3.29767 36.5053 3.31954 36.6301C3.79322 36.9803 4.37996 37.1501 4.97122 37.1081Z" fill="#612469"/>
<path d="M12.9596 14.9332H10.1489L9.69837 16.2634H7.77813L10.5029 8.73264H12.627L15.3518 16.2634H13.4101L12.9596 14.9332ZM12.4876 13.5172L11.5543 10.7602L10.6317 13.5172H12.4876ZM11.5046 29.8474H13.9076V31.2634H9.67017V23.7326H11.5046V29.8474Z" fill="#6CC5D7"/>
</g>
<defs>
<clipPath id="clip0">
<rect width="22.5845" height="40" fill="white"/>
</clipPath>
</defs>
</svg>
