<svg width="74" height="74" viewBox="0 0 74 74" fill="none" xmlns="http://www.w3.org/2000/svg">
<path d="M37 0C29.6821 0 22.5285 2.17001 16.4439 6.23562C10.3593 10.3012 5.61691 16.0798 2.81647 22.8407C0.0160316 29.6016 -0.716692 37.041 0.710961 44.2183C2.13861 51.3956 5.66252 57.9884 10.8371 63.1629C16.0116 68.3375 22.6044 71.8614 29.7817 73.289C36.959 74.7167 44.3984 73.984 51.1593 71.1835C57.9202 68.3831 63.6988 63.6407 67.7644 57.5561C71.83 51.4715 74 44.3179 74 37C74 27.187 70.1018 17.7759 63.163 10.837C56.2241 3.8982 46.813 0 37 0ZM52.3045 39.7918L32.1227 53.2464C31.6168 53.5795 31.0304 53.7699 30.4253 53.7974C29.8201 53.8248 29.2188 53.6884 28.6848 53.4025C28.1508 53.1165 27.704 52.6917 27.3914 52.1728C27.0789 51.6539 26.9122 51.0603 26.9091 50.4545V23.5455C26.9122 22.9397 27.0789 22.3461 27.3914 21.8272C27.704 21.3083 28.1508 20.8835 28.6848 20.5975C29.2188 20.3116 29.8201 20.1751 30.4253 20.2026C31.0304 20.2301 31.6168 20.4205 32.1227 20.7536L52.3045 34.2082C52.7624 34.5159 53.1376 34.9314 53.397 35.4183C53.6564 35.9052 53.7921 36.4483 53.7921 37C53.7921 37.5516 53.6564 38.0948 53.397 38.5817C53.1376 39.0685 52.7624 39.4841 52.3045 39.7918Z" fill="#21C6A6"/>
</svg>
