<svg width="80" height="80" viewBox="0 0 80 80" fill="none" xmlns="http://www.w3.org/2000/svg">
<path d="M42.3336 74.2256H37.402L35.2616 69.9476C34.2664 69.75 33.2888 69.4896 32.3432 69.17L28.3568 71.8016L24.086 69.3352L24.3724 64.56C23.6188 63.8968 22.9048 63.1828 22.24 62.4284L17.4644 62.7148L14.9992 58.4424L17.6296 54.4568C17.3096 53.51 17.0496 52.532 16.8516 51.5372L12.5752 49.3972V44.466L16.852 42.3264C17.05 41.3312 17.31 40.3536 17.6292 39.4076L14.9992 35.4224L17.464 31.15L22.24 31.436C22.9044 30.6812 23.618 29.9672 24.3724 29.3036L24.086 24.5296L28.3568 22.0632L32.342 24.6936C33.2892 24.3744 34.2672 24.1136 35.2628 23.916L37.402 19.6388H42.334L44.4724 23.916C45.4672 24.1132 46.4456 24.374 47.3928 24.6936L51.3784 22.062L55.6512 24.5276L55.3648 29.3048C56.1184 29.9688 56.832 30.6824 57.496 31.436L62.272 31.1492L64.7376 35.4216L62.106 39.408C62.426 40.3556 62.6864 41.3328 62.884 42.3268L67.1608 44.4664V49.3976L62.8832 51.5376C62.6852 52.5332 62.4248 53.5108 62.1056 54.4572L64.7364 58.442L62.272 62.7152L57.494 62.428C56.8292 63.1836 56.1156 63.8964 55.3632 64.5592L55.6504 69.3352L51.3776 71.8016L47.3904 69.1692C46.4448 69.4888 45.4668 69.7488 44.4724 69.9464L42.3336 74.2256ZM39.0088 71.6264H40.7272L42.7332 67.616L43.3836 67.5056C44.6688 67.2876 45.9244 66.9532 47.1164 66.5116L47.7344 66.2828L51.47 68.7488L52.9604 67.8896L52.6908 63.4148L53.1968 62.994C54.1848 62.1732 55.1044 61.2536 55.9304 60.262L56.3508 59.7564L60.8248 60.0256L61.684 58.5356L59.2168 54.8L59.4464 54.1824C59.8884 52.99 60.2236 51.7336 60.4424 50.4476L60.5528 49.7984L64.5616 47.7924V46.074L60.5524 44.068L60.442 43.4176C60.2248 42.1348 59.8896 40.8784 59.4468 39.684L59.2184 39.0664L61.6844 35.3316L60.824 33.8412L56.3508 34.1104L55.9304 33.6044C55.1064 32.6148 54.1876 31.6956 53.198 30.872L52.6916 30.4516L52.9608 25.9772L51.4708 25.1172L47.7356 27.584L47.1176 27.3544C45.9244 26.9116 44.6672 26.5772 43.3828 26.3592L42.7324 26.2488L40.7276 22.2392H39.0088L37.0036 26.2488L36.3532 26.3592C35.0676 26.5768 33.8116 26.912 32.6184 27.3544L32.0008 27.5836L28.266 25.1184L26.7772 25.978L27.0456 30.45L26.5396 30.8708C25.5508 31.6928 24.6312 32.6124 23.8064 33.6032L23.3864 34.1092L18.9128 33.8412L18.054 35.3316L20.518 39.0656L20.2896 39.6828C19.848 40.8752 19.5128 42.1316 19.294 43.4168L19.184 44.0668L15.1748 46.0728V47.7912L19.184 49.7972L19.2944 50.4476C19.512 51.7332 19.8464 52.9892 20.2888 54.1812L20.5176 54.7992L18.0532 58.534L18.9128 60.0244L23.3856 59.7552L23.8056 60.2616C24.6304 61.2528 25.55 62.172 26.5388 62.994L27.0448 63.4148L26.7764 67.8884L28.2652 68.7476L32.0012 66.282L32.6188 66.5112C33.8104 66.9528 35.066 67.2872 36.352 67.506L37.002 67.616L39.0088 71.6264Z" fill="#21C6A6"/>
<path d="M39.8682 80C21.6346 80 6.7998 65.1652 6.7998 46.9316C6.7998 28.6984 21.6342 13.8644 39.8682 13.8644C58.1022 13.8644 72.9366 28.6984 72.9366 46.9316C72.9366 65.1652 58.1022 80 39.8682 80ZM39.8682 16.4636C23.0678 16.4636 9.399 30.1316 9.399 46.9316C9.399 63.732 23.0678 77.4008 39.8682 77.4008C56.6686 77.4008 70.3374 63.732 70.3374 46.9316C70.3374 30.1316 56.6686 16.4636 39.8682 16.4636Z" fill="#21C6A6"/>
<path d="M67.3364 21.3015L65.4985 19.4636L61.4123 23.5498L63.2502 25.3877L67.3364 21.3015Z" fill="#21C6A6"/>
<path d="M70.3998 22.5271L64.2729 16.4002L62.4353 18.2378L68.5622 24.3647L70.3998 22.5271Z" fill="#21C6A6"/>
<path d="M18.3245 23.5502L14.2383 19.4641L12.4004 21.3019L16.4866 25.3881L18.3245 23.5502Z" fill="#21C6A6"/>
<path d="M17.3013 18.2384L15.4634 16.4005L9.33678 22.5271L11.1747 24.365L17.3013 18.2384Z" fill="#21C6A6"/>
<path d="M41.1676 5.34326H38.5684V15.1641H41.1676V5.34326Z" fill="#21C6A6"/>
<path d="M46.2221 10.686H33.5141C32.0869 10.686 30.7449 10.1304 29.7357 9.1208C28.7265 8.1112 28.1709 6.7696 28.1709 5.3432C28.1709 3.916 28.7265 2.574 29.7353 1.5644C30.7461 0.5552 32.0877 0 33.5141 0H46.2221C47.6485 0 48.9909 0.5552 50.0005 1.5636C51.0101 2.5744 51.5653 3.9164 51.5653 5.3432C51.5653 6.7692 51.0101 8.1104 50.0017 9.1204C48.9921 10.1308 47.6497 10.686 46.2221 10.686ZM33.5141 2.5996C32.7813 2.5996 32.0921 2.8848 31.5729 3.4028C31.0557 3.9208 30.7701 4.61 30.7701 5.3436C30.7701 6.0764 31.0553 6.7652 31.5737 7.2836C32.0917 7.802 32.7809 8.0876 33.5137 8.0876H46.2217C46.9549 8.0876 47.6445 7.802 48.1629 7.2836C48.6801 6.7652 48.9657 6.0764 48.9657 5.3436C48.9657 4.6104 48.6801 3.9208 48.1625 3.402C47.6445 2.8852 46.9549 2.6 46.2217 2.6H33.5141V2.5996Z" fill="#21C6A6"/>
<path d="M39.8681 52.2748C36.9217 52.2748 34.5249 49.878 34.5249 46.932C34.5249 43.9856 36.9217 41.5892 39.8681 41.5892C42.8141 41.5892 45.2109 43.9856 45.2109 46.932C45.2109 49.8776 42.8141 52.2748 39.8681 52.2748ZM39.8681 44.188C38.3553 44.188 37.1245 45.4188 37.1245 46.9316C37.1245 48.4444 38.3553 49.6752 39.8681 49.6752C41.3809 49.6752 42.6117 48.4444 42.6117 46.9316C42.6117 45.4188 41.3809 44.188 39.8681 44.188Z" fill="#21C6A6"/>
<path d="M53.0935 45.632H43.9111V48.2312H53.0935V45.632Z" fill="#21C6A6"/>
<path d="M41.168 28.4472H38.5688V31.0772H41.168V28.4472Z" fill="#21C6A6"/>
<path d="M50.2346 31.5735L47.9839 30.2726L46.6674 32.5504L48.9182 33.8512L50.2346 31.5735Z" fill="#21C6A6"/>
<path d="M56.5308 38.814L55.23 36.5632L52.9519 37.8799L54.2527 40.1306L56.5308 38.814Z" fill="#21C6A6"/>
<path d="M58.3541 45.6308H55.7241V48.23H58.3541V45.6308Z" fill="#21C6A6"/>
<path d="M56.527 55.0452L54.2495 53.7285L52.9484 55.9789L55.2259 57.2956L56.527 55.0452Z" fill="#21C6A6"/>
<path d="M50.2351 62.2888L48.9185 60.0107L46.6677 61.3115L47.9844 63.5896L50.2351 62.2888Z" fill="#21C6A6"/>
<path d="M41.1704 62.7859H38.5708V65.416H41.1704V62.7859Z" fill="#21C6A6"/>
<path d="M33.0712 61.3119L30.8203 60.0123L29.5053 62.2898L31.7562 63.5894L33.0712 61.3119Z" fill="#21C6A6"/>
<path d="M26.7921 55.985L25.4912 53.7343L23.2135 55.0507L24.5143 57.3014L26.7921 55.985Z" fill="#21C6A6"/>
<path d="M24.0145 45.6332H21.3853V48.2324H24.0145V45.6332Z" fill="#21C6A6"/>
<path d="M26.7908 37.8822L24.5127 36.5656L23.2119 38.8163L25.49 40.1329L26.7908 37.8822Z" fill="#21C6A6"/>
<path d="M33.0679 32.5502L31.7529 30.2726L29.502 31.5722L30.817 33.8498L33.0679 32.5502Z" fill="#21C6A6"/>
</svg>
