<svg width="85" height="80" viewBox="0 0 85 80" fill="none" xmlns="http://www.w3.org/2000/svg">
<path d="M37.4651 6.9082H27.6633V9.36238H37.4651V6.9082Z" fill="#21C6A6"/>
<path d="M33.7987 70.6123H31.3445V73.0665H33.7987V70.6123Z" fill="#21C6A6"/>
<path d="M48.494 70.6123H46.0398V73.0665H48.494V70.6123Z" fill="#21C6A6"/>
<path d="M19.1036 70.6123H16.6494V73.0665H19.1036V70.6123Z" fill="#21C6A6"/>
<path d="M25.2242 6.9082H22.77V9.36238H25.2242V6.9082Z" fill="#21C6A6"/>
<path d="M44.8277 33.8594H42.3735V36.3136H44.8277V33.8594Z" fill="#21C6A6"/>
<path d="M68.0975 27.8437V22.4864C68.0975 21.3042 67.5587 20.2268 66.601 19.5234C65.6433 18.8201 64.4611 18.6256 63.3238 18.9698L57.1434 21.7831V14.2559V11.8018V2H8V11.8018V14.2559V65.7039V68.1581V77.9598H57.1434V68.1581V65.7039V48.375L63.1891 51.1285L63.3388 51.1883C63.6979 51.308 64.072 51.3529 64.4461 51.3529C65.2093 51.3529 65.9725 51.1135 66.616 50.6347C67.5737 49.9313 68.1124 48.8539 68.1124 47.6717V42.3144C71.5842 41.7308 74.2329 38.7079 74.2329 35.0716C74.2329 31.4352 71.5692 28.4273 68.0975 27.8437ZM10.4542 4.45418H54.6893V11.8018H10.4542V4.45418ZM54.6893 75.5057H10.4542V68.1581H54.6893V75.5057ZM54.6893 65.7039H10.4542V14.2559H54.6893V22.9054L49.4517 25.2848H39.9193C37.8991 25.2848 36.238 26.9309 36.238 28.966V41.222C36.238 43.2422 37.8841 44.9032 39.9193 44.9032H40.1288L42.0742 55.2886C42.3435 57.0843 43.8699 58.3863 45.6806 58.3863C46.7431 58.3863 47.7607 57.9224 48.4491 57.1143C49.1374 56.3062 49.4517 55.2437 49.2721 54.1513L47.5213 44.9182H49.4517L54.6893 47.2976V65.7039ZM46.8479 54.5254C46.9077 54.8696 46.803 55.2138 46.5785 55.4832C46.354 55.7525 46.0248 55.9022 45.6657 55.9022C45.0671 55.9022 44.5733 55.4682 44.4835 54.8546L42.6129 44.8883H45.0222L46.8479 54.5254ZM39.9193 42.4341C39.2459 42.4341 38.6922 41.8804 38.6922 41.207V28.9511C38.6922 28.2777 39.2459 27.724 39.9193 27.724H48.494V42.4191H47.0574H39.9193V42.4341ZM65.6433 47.6717C65.6433 48.0608 65.4637 48.4199 65.1495 48.6593C64.8502 48.8838 64.4761 48.9586 64.1169 48.8539L50.9481 42.8681V27.29L64.1169 21.3042C64.4761 21.2144 64.8502 21.2893 65.1495 21.4988C65.4637 21.7382 65.6433 22.0973 65.6433 22.4864V47.6717ZM68.0975 39.8003V30.3428C70.2075 30.8965 71.7787 32.797 71.7787 35.0716C71.7787 37.3462 70.2075 39.2616 68.0975 39.8003Z" fill="#21C6A6"/>
<path d="M84.0199 33.8594H79.1265V36.3136H84.0199V33.8594Z" fill="#21C6A6"/>
<path d="M80.7654 25.9912L79.03 24.2559L75.5699 27.716L77.3053 29.4513L80.7654 25.9912Z" fill="#21C6A6"/>
<path d="M75.5697 42.4417L79.0298 45.9019L80.7651 44.1665L77.305 40.7064L75.5697 42.4417Z" fill="#21C6A6"/>
</svg>
