<svg width="100" height="80" viewBox="0 0 100 80" fill="none" xmlns="http://www.w3.org/2000/svg">
<path d="M97.1935 67.4805V3H2V67.4805H38.8407V73.6269H21.9569V76.7H38.8407H60.3342H77.2179V73.6269H60.3342V67.4805H97.1935ZM94.1204 6.05444V52.1146H5.07318V6.05444H94.1204ZM5.07318 64.4073V55.1878H94.1204V64.4073H60.3529H38.8407H5.07318ZM57.2797 73.6269H41.9138V67.4805H57.2797V73.6269Z" fill="#21C6A6"/>
<path d="M51.1332 58.2607H48.0601V61.3339H51.1332V58.2607Z" fill="#21C6A6"/>
<path d="M57.2797 58.2607H54.2065V61.3339H57.2797V58.2607Z" fill="#21C6A6"/>
<path d="M44.9872 58.2607H41.9141V61.3339H44.9872V58.2607Z" fill="#21C6A6"/>
<path d="M22.7252 44.4503C25.686 44.4503 28.1033 42.033 28.1033 39.0722C28.1033 38.154 27.8409 37.292 27.4287 36.5425L38.1661 25.8051C38.6345 25.9363 39.103 26.03 39.609 26.03C40.1149 26.03 40.5834 25.9363 41.0519 25.8051L52.4076 37.1609C51.6206 38.0978 51.1146 39.2971 51.1146 40.6088C51.1146 43.5696 53.532 45.9869 56.4927 45.9869C59.4534 45.9869 61.8708 43.5696 61.8708 40.6088C61.8708 39.2971 61.3835 38.0978 60.5778 37.1609L75.1941 22.5445C75.8125 22.8069 76.5058 22.9568 77.2179 22.9568C80.1786 22.9568 82.596 20.5395 82.596 17.5787C82.596 14.618 80.1786 12.2007 77.2179 12.2007C74.2572 12.2007 71.8399 14.618 71.8399 17.5787C71.8399 18.7031 72.1959 19.7525 72.7768 20.6144L57.9356 35.4556C57.4671 35.3245 56.9986 35.2308 56.4927 35.2308C55.9867 35.2308 55.5183 35.3245 55.0498 35.4556L43.694 24.0999C44.4811 23.1629 44.987 21.9636 44.987 20.6519C44.987 17.6912 42.5697 15.2739 39.609 15.2739C36.6482 15.2739 34.2309 17.6912 34.2309 20.6519C34.2309 21.9636 34.7181 23.1629 35.5239 24.0999L25.255 34.3688C24.4867 33.9565 23.6434 33.6942 22.7252 33.6942C19.7645 33.6942 17.3472 36.1115 17.3472 39.0722C17.3472 42.033 19.7645 44.4503 22.7252 44.4503ZM77.2366 15.2739C78.5109 15.2739 79.5415 16.3045 79.5415 17.5787C79.5415 18.853 78.5109 19.8836 77.2366 19.8836C75.9624 19.8836 74.9318 18.853 74.9318 17.5787C74.9318 16.3045 75.9624 15.2739 77.2366 15.2739ZM58.8163 40.6088C58.8163 41.8831 57.7857 42.9137 56.5114 42.9137C55.2372 42.9137 54.2066 41.8831 54.2066 40.6088C54.2066 39.3346 55.2372 38.304 56.5114 38.304C57.7857 38.304 58.8163 39.3346 58.8163 40.6088ZM39.609 18.347C40.8832 18.347 41.9138 19.3777 41.9138 20.6519C41.9138 21.9262 40.8832 22.9568 39.609 22.9568C38.3347 22.9568 37.3041 21.9262 37.3041 20.6519C37.3228 19.3777 38.3535 18.347 39.609 18.347ZM22.7252 36.7674C23.9995 36.7674 25.0301 37.798 25.0301 39.0722C25.0301 40.3465 23.9995 41.3771 22.7252 41.3771C21.451 41.3771 20.4203 40.3465 20.4203 39.0722C20.4203 37.798 21.451 36.7674 22.7252 36.7674Z" fill="#21C6A6"/>
</svg>
