<svg width="80" height="80" viewBox="0 0 80 80" fill="none" xmlns="http://www.w3.org/2000/svg">
<path d="M73.454 67.4692H70.9624V28.4916C70.9624 28.2524 70.8676 28.0256 70.6968 27.8532C70.5288 27.6864 70.3 27.5908 70.0604 27.5908H52.7332V25.0992H70.0604C70.9616 25.0992 71.814 25.4516 72.458 26.0912C73.1024 26.74 73.4536 27.5904 73.4536 28.4912V67.4692H73.454Z" fill="#21C6A6"/>
<path d="M9.03896 67.4692H6.54736V28.4916C6.54736 27.5888 6.90056 26.7376 7.54216 26.0952C8.17816 25.454 9.03056 25.0992 9.94016 25.0992H27.2678V27.5908H9.94016C9.70016 27.5908 9.47496 27.6836 9.30736 27.8532C9.13336 28.028 9.03856 28.2536 9.03856 28.4916V67.4692H9.03896Z" fill="#21C6A6"/>
<path d="M75.5448 75.6832H4.454C3.2672 75.6832 2.1492 75.2216 1.3064 74.3832C0.464 73.544 0 72.4248 0 71.2312V66.2236H29.2256L31.9936 68.438H48.006L50.774 66.2236H80V71.2312C80 72.4228 79.5368 73.542 78.696 74.3824C77.8532 75.2212 76.7344 75.6832 75.5448 75.6832ZM2.4916 68.7152V71.2312C2.4916 71.7576 2.6948 72.25 3.064 72.6176C3.4364 72.9876 3.93 73.192 4.4544 73.192H75.5456C76.0716 73.192 76.566 72.9884 76.9368 72.6176C77.3056 72.25 77.5096 71.7572 77.5096 71.2312V68.7152H51.648L48.8796 70.9296H31.1204L28.3524 68.7152H2.4916Z" fill="#21C6A6"/>
<path d="M16.3324 60.6872H13.8408V63.1788H16.3324V60.6872Z" fill="#21C6A6"/>
<path d="M21.3153 60.6872H18.8237V63.1788H21.3153V60.6872Z" fill="#21C6A6"/>
<path d="M26.2978 60.6872H23.8062V63.1788H26.2978V60.6872Z" fill="#21C6A6"/>
<path d="M31.2804 60.6872H28.7888V63.1788H31.2804V60.6872Z" fill="#21C6A6"/>
<path d="M36.2629 60.6872H33.7717V63.1788H36.2629V60.6872Z" fill="#21C6A6"/>
<path d="M41.246 60.6872H38.7544V63.1788H41.246V60.6872Z" fill="#21C6A6"/>
<path d="M46.2289 60.6872H43.7373V63.1788H46.2289V60.6872Z" fill="#21C6A6"/>
<path d="M51.2113 60.6872H48.7197V63.1788H51.2113V60.6872Z" fill="#21C6A6"/>
<path d="M56.194 60.6872H53.7024V63.1788H56.194V60.6872Z" fill="#21C6A6"/>
<path d="M61.1767 60.6872H58.6851V63.1788H61.1767V60.6872Z" fill="#21C6A6"/>
<path d="M66.1592 60.6872H63.668V63.1788H66.1592V60.6872Z" fill="#21C6A6"/>
<path d="M23.8065 26.3449H21.3149C21.3149 16.0421 29.6969 7.65967 40.0001 7.65967H44.0249V10.1513H40.0001C31.0713 10.1513 23.8065 17.4157 23.8065 26.3449Z" fill="#21C6A6"/>
<path d="M40.881 13.8108L39.1194 12.0496L42.2626 8.9056L39.1194 5.7616L40.881 4L45.787 8.9056L40.881 13.8108Z" fill="#21C6A6"/>
<path d="M40.0002 45.03H35.9766V42.5384H40.0002C48.929 42.5384 56.1938 35.2744 56.1938 26.3448H58.6854C58.6854 36.6476 50.3034 45.03 40.0002 45.03Z" fill="#21C6A6"/>
<path d="M39.1206 48.69L34.2146 43.784L39.1206 38.8792L40.8818 40.6408L37.7386 43.784L40.8818 46.9288L39.1206 48.69Z" fill="#21C6A6"/>
<path d="M39.9998 30.3587C37.7862 30.3587 35.9858 28.5584 35.9858 26.3448C35.9858 24.1312 37.7862 22.3307 39.9998 22.3307C42.2134 22.3307 44.0138 24.1312 44.0138 26.3448C44.0138 28.5584 42.213 30.3587 39.9998 30.3587ZM39.9998 24.8223C39.1602 24.8223 38.4774 25.5052 38.4774 26.3448C38.4774 27.1844 39.1602 27.8672 39.9998 27.8672C40.8394 27.8672 41.5222 27.1844 41.5222 26.3448C41.5222 25.5052 40.8394 24.8223 39.9998 24.8223Z" fill="#21C6A6"/>
<path d="M39.9998 36.4488C34.429 36.4488 29.8962 31.9164 29.8962 26.3448C29.8962 20.7732 34.429 16.2412 39.9998 16.2412C45.5706 16.2412 50.1034 20.7736 50.1034 26.3448C50.1034 31.916 45.5706 36.4488 39.9998 36.4488ZM39.9998 18.7324C35.8022 18.7324 32.3874 22.1472 32.3874 26.3448C32.3874 30.5424 35.8018 33.9576 39.9998 33.9576C44.1978 33.9576 47.6122 30.5428 47.6122 26.3452C47.6122 22.1476 44.1974 18.7324 39.9998 18.7324Z" fill="#21C6A6"/>
</svg>
