<svg width="80" height="80" viewBox="0 0 80 80" fill="none" xmlns="http://www.w3.org/2000/svg">
<path d="M40.0004 61.0204L21.7968 50.512L21.7964 29.4908L40.0004 18.9832L58.2032 29.4908L58.2044 50.5112L40.0004 61.0204ZM24.3776 49.0224L40.0004 58.0412L55.6236 49.0212L55.6224 30.98L40.0004 21.9624L24.3772 30.98L24.3776 49.0224Z" fill="#21C6A6"/>
<path d="M40 41.49L22.4424 31.3524L23.7328 29.118L40 38.5104L56.2684 29.118L57.5588 31.3524L40 41.49Z" fill="#21C6A6"/>
<path d="M41.2908 40H38.71V59.5308H41.2908V40Z" fill="#21C6A6"/>
<path d="M22.4415 31.3524L17.8579 28.7064H12.5659V26.1256H18.5499L23.7319 29.118L22.4415 31.3524Z" fill="#21C6A6"/>
<path d="M57.5585 31.3524L56.2681 29.118L61.4501 26.1256H67.4341V28.7064H62.1421L57.5585 31.3524Z" fill="#21C6A6"/>
<path d="M67.4341 53.8752H61.4501L56.2681 50.8832L57.5585 48.6484L62.1421 51.2948H67.4341V53.8752Z" fill="#21C6A6"/>
<path d="M18.5499 53.8752H12.5659V51.2948H17.8579L22.4415 48.6484L23.7319 50.8832L18.5499 53.8752Z" fill="#21C6A6"/>
<path d="M41.2908 12.566H38.71V20.4728H41.2908V12.566Z" fill="#21C6A6"/>
<path d="M41.2908 59.5308H38.71V67.4372H41.2908V59.5308Z" fill="#21C6A6"/>
<path d="M15.4331 9.84204H12.5659V12.4228H15.4331V9.84204Z" fill="#21C6A6"/>
<path d="M67.434 9.84204H64.5664V12.4228H67.434V9.84204Z" fill="#21C6A6"/>
<path d="M15.4331 67.5804H12.5659V70.1613H15.4331V67.5804Z" fill="#21C6A6"/>
<path d="M67.434 67.5804H64.5664V70.1613H67.434V67.5804Z" fill="#21C6A6"/>
<path d="M46.9287 13.8564H33.0723V0H46.9291V13.8564H46.9287ZM35.6527 11.2756H44.3479V2.5808H35.6527V11.2756Z" fill="#21C6A6"/>
<path d="M46.9287 79.9999H33.0723V66.1436H46.9291V79.9999H46.9287ZM35.6527 77.4195H44.3479V68.7244H35.6527V77.4195Z" fill="#21C6A6"/>
<path d="M13.8564 34.2024H0V20.346H13.8564V34.2024ZM2.5808 31.622H11.276V22.9268H2.5808V31.622Z" fill="#21C6A6"/>
<path d="M13.8564 59.6552H0V45.7984H13.8564V59.6552ZM2.5808 57.0744H11.276V48.3796H2.5808V57.0744Z" fill="#21C6A6"/>
<path d="M80 34.2024H66.1436V20.346H80V34.2024ZM68.7244 31.622H77.4196V22.9268H68.7244V31.622Z" fill="#21C6A6"/>
<path d="M80 59.6552H66.1436V45.7984H80V59.6552ZM68.7244 57.0744H77.4196V48.3796H68.7244V57.0744Z" fill="#21C6A6"/>
</svg>
