<svg width="80" height="80" viewBox="0 0 80 80" fill="none" xmlns="http://www.w3.org/2000/svg">
<path d="M39.5146 53.8219C45.5405 53.8219 50.3997 46.5405 50.3997 40.5146C50.3997 34.5034 45.511 29.6294 39.5146 29.6294C33.5181 29.6294 28.6294 34.5181 28.6294 40.5146C28.6294 46.5405 33.4886 53.8219 39.5146 53.8219ZM39.5146 32.0368C44.1817 32.0368 47.9923 35.8326 47.9923 40.5146C47.9923 45.3147 44.0045 51.3997 39.5146 51.3997C35.0246 51.3997 31.0368 45.3147 31.0368 40.5146C31.0368 35.8474 34.8474 32.0368 39.5146 32.0368Z" fill="#21C6A6"/>
<path d="M67.3405 20.9746C67.1042 14.1806 61.2259 8.73059 54.0332 8.73059C51.4337 8.73059 48.9672 9.42476 46.8108 10.754C43.1775 5.88006 37.3731 3 31.037 3C20.5063 3 11.9104 11.0199 11.6741 20.9746C5.94347 22.8946 2 28.123 2 33.9718C2 41.5781 8.51338 47.7665 16.5185 47.7665H27.4036V45.3591H16.5185C9.84264 45.3591 4.42221 40.2488 4.42221 33.9718C4.42221 28.9058 8.04075 24.4011 13.2249 23.0275L14.1553 22.7764L14.111 21.5506C14.111 21.4915 14.0963 21.4324 14.0963 21.3733C14.0963 12.5707 21.7026 5.40744 31.037 5.40744C36.9743 5.40744 42.38 8.27273 45.4816 13.0728L46.1905 14.1658L47.2244 13.383C49.174 11.906 51.5223 11.138 54.0184 11.138C60.0296 11.138 64.9036 15.7314 64.9036 21.3733C64.9036 21.4472 64.9036 21.521 64.8888 21.5801L64.8297 22.7617L65.775 23.0128C70.9591 24.3863 74.5776 28.891 74.5776 33.957C74.5776 40.2341 69.1424 45.3443 62.4814 45.3443H51.5962V47.7665H62.4814C70.4865 47.7665 76.9998 41.5781 76.9998 33.9718C77.0294 28.123 73.0859 22.8946 67.3405 20.9746Z" fill="#21C6A6"/>
<path d="M55.6874 58.8583L47.4608 53.9105C47.3574 53.8366 47.254 53.7775 47.1359 53.7037L45.8804 52.9209L39.5295 65.6375L33.1786 52.9209L31.9232 53.7037C31.8198 53.7628 31.7017 53.8366 31.6574 53.8661L23.3716 58.8435C18.4091 61.8269 16.3856 68.5028 18.7635 74.0414L20.4325 77.9553H58.6709L60.3398 74.0414C62.6734 68.5028 60.6352 61.8269 55.6874 58.8583ZM58.0653 73.0961L57.0315 75.5479H21.9981L20.9642 73.0961C19.0589 68.6357 20.654 63.2891 24.5975 60.926L32.1743 56.377L39.5148 71.0579L46.8552 56.377L54.432 60.926C58.3755 63.2891 59.9706 68.6505 58.0653 73.0961Z" fill="#21C6A6"/>
<path d="M54.0479 68.3555H46.7812V70.7777H54.0479V68.3555Z" fill="#21C6A6"/>
<path d="M32.0856 10.2814C32.0856 9.61679 31.5391 9.07031 30.8745 9.07031C24.2134 9.07031 18.793 13.8113 18.793 19.6453C18.793 20.3099 19.3394 20.8564 20.0041 20.8564C20.6687 20.8564 21.2152 20.3099 21.2152 19.6453C21.2152 15.1554 25.5427 11.4925 30.8745 11.4925C31.5391 11.4925 32.0856 10.946 32.0856 10.2814Z" fill="#21C6A6"/>
</svg>
