<svg width="80" height="80" viewBox="0 0 80 80" fill="none" xmlns="http://www.w3.org/2000/svg">
<path d="M71.6102 5H8.38976C6.51575 5 5 6.51575 5 8.38976V20.8051V23.065V56.935V59.1949V71.6102C5 73.4842 6.51575 75 8.38976 75H71.6102C73.4842 75 75 73.4842 75 71.6102V59.1949V56.935V23.065V20.8051V8.38976C75 6.51575 73.4842 5 71.6102 5ZM72.7402 71.6102C72.7402 72.2303 72.2303 72.7402 71.6102 72.7402H8.38976C7.76969 72.7402 7.25984 72.2303 7.25984 71.6102V59.1949H72.7402V71.6102ZM72.7402 56.935H7.25984V23.065H72.7402V56.935ZM72.7402 20.8051H7.25984V8.38976C7.25984 7.76969 7.76969 7.25984 8.38976 7.25984H71.6102C72.2303 7.25984 72.7402 7.76969 72.7402 8.38976V20.8051Z" fill="#21C6A6"/>
<path d="M35.4802 17.4152H44.5058V10.6494H35.4802V17.4152ZM37.7401 12.9093H42.2598V15.1691H37.7401V12.9093Z" fill="#21C6A6"/>
<path d="M55.8052 17.4152H64.8308V10.6494H55.8052V17.4152ZM58.065 12.9093H62.5847V15.1691H58.065V12.9093Z" fill="#21C6A6"/>
<path d="M15.1555 17.4152H24.1811V10.6494H15.1555V17.4152ZM17.4154 12.9093H21.935V15.1691H17.4154V12.9093Z" fill="#21C6A6"/>
<path d="M44.5197 62.5845H35.4941V69.3502H44.5197V62.5845ZM42.2599 67.0904H37.7402V64.8305H42.2599V67.0904Z" fill="#21C6A6"/>
<path d="M64.8444 62.5845H55.8188V69.3502H64.8444V62.5845ZM62.5846 67.0904H58.0649V64.8305H62.5846V67.0904Z" fill="#21C6A6"/>
<path d="M24.1949 62.5845H15.1555V69.3502H24.1811V62.5845H24.1949ZM21.935 67.0904H17.4154V64.8305H21.935V67.0904Z" fill="#21C6A6"/>
<path d="M40.0001 53.5451C47.4686 53.5451 53.5454 47.4684 53.5454 39.9999C53.5454 32.5314 47.4686 26.4546 40.0001 26.4546C32.5316 26.4546 26.4548 32.5314 26.4548 39.9999C26.4548 47.4684 32.5316 53.5451 40.0001 53.5451ZM40.0001 28.7144C46.2285 28.7144 51.2855 33.7853 51.2855 39.9999C51.2855 46.2144 46.2147 51.2853 40.0001 51.2853C33.7855 51.2853 28.7147 46.2144 28.7147 39.9999C28.7147 33.7853 33.7718 28.7144 40.0001 28.7144Z" fill="#21C6A6"/>
<path d="M36.6104 33.3721V46.628L46.5454 40L36.6104 33.3721ZM38.8702 37.5886L42.4804 40L38.8702 42.4114V37.5886Z" fill="#21C6A6"/>
</svg>
