<svg width="28" height="27" viewBox="0 0 28 27" fill="none" xmlns="http://www.w3.org/2000/svg">
<path d="M21.9731 0.556396H5.87902C3.08344 0.556396 0.809082 2.83022 0.809082 5.62581V10.981V21.7204C0.809082 24.516 3.08344 26.7898 5.87902 26.7898H21.9736C24.7692 26.7898 27.043 24.516 27.043 21.7204V10.9804V5.62528C27.0425 2.82969 24.7687 0.556396 21.9731 0.556396ZM23.4272 3.57952L24.0072 3.5774V4.15472V8.02399L19.5754 8.03827L19.5601 3.59222L23.4272 3.57952ZM10.1817 10.9804C11.022 9.81786 12.3851 9.05533 13.926 9.05533C15.467 9.05533 16.8301 9.81786 17.6694 10.9804C18.216 11.7393 18.5435 12.6674 18.5435 13.6728C18.5435 16.2186 16.4703 18.2898 13.9255 18.2898C11.3792 18.2898 9.30801 16.2186 9.30801 13.6728C9.30854 12.6674 9.63504 11.7393 10.1817 10.9804ZM24.4866 21.7199C24.4866 23.1068 23.359 24.2334 21.9731 24.2334H5.87902C4.49261 24.2334 3.36495 23.1068 3.36495 21.7199V10.9804H7.28078C6.94264 11.8123 6.75267 12.7209 6.75267 13.6728C6.75267 17.6273 9.97 20.8467 13.926 20.8467C17.8816 20.8467 21.0989 17.6273 21.0989 13.6728C21.0989 12.7209 20.9079 11.8123 20.5697 10.9804H24.4866V21.7199Z" fill="black"/>
</svg>
