<svg width="30" height="30" viewBox="0 0 30 30" fill="none" xmlns="http://www.w3.org/2000/svg">
<path d="M15.9117 14.3408V14.3C15.9032 14.3138 15.8943 14.3276 15.8853 14.3408H15.9117Z" fill="black"/>
<path d="M26.0691 2.46948H3.78062C2.71382 2.46948 1.84863 3.31403 1.84863 4.3549V26.9042C1.84863 27.9446 2.71382 28.7891 3.78062 28.7891H26.0691C27.1375 28.7891 28.0027 27.9441 28.0027 26.9042V4.3549C28.0027 3.3135 27.1369 2.46948 26.0691 2.46948ZM9.77607 24.5024H5.82584V12.6178H9.77607V24.5024ZM7.80122 10.9943H7.77476C6.44973 10.9943 5.59248 10.0815 5.59248 8.94118C5.59248 7.77543 6.47619 6.88802 7.82715 6.88802C9.17864 6.88802 10.01 7.77543 10.0364 8.94118C10.0364 10.0815 9.17811 10.9943 7.80122 10.9943ZM24.0207 24.5024H20.0705V18.1428C20.0705 16.5458 19.499 15.4557 18.0697 15.4557C16.9785 15.4557 16.3287 16.1908 16.0424 16.9009C15.9382 17.1544 15.9128 17.5089 15.9128 17.8645V24.5018H11.9626C11.9626 24.5018 12.0144 13.7312 11.9626 12.6173H15.9128V14.2995C16.4377 13.4899 17.3765 12.3368 19.4736 12.3368C22.0723 12.3368 24.0212 14.036 24.0212 17.6867V24.5024H24.0207Z" fill="black"/>
</svg>
