<svg width="28" height="28" viewBox="0 0 28 28" fill="none" xmlns="http://www.w3.org/2000/svg">
<path fill-rule="evenodd" clip-rule="evenodd" d="M0.916504 24.9027C0.916504 26.1073 1.89234 27.0831 3.0969 27.0831H24.9022C26.1068 27.0831 27.0826 26.1073 27.0826 24.9027V3.09739C27.0826 1.89277 26.1068 0.916992 24.9022 0.916992H3.09696C1.89234 0.916992 0.916564 1.89283 0.916564 3.09739V24.9027H0.916504ZM17.8155 14.5452H12.3642V16.1805C12.3642 16.7799 12.8548 17.2708 13.4544 17.2708H17.8155C19.0202 17.2708 19.9959 18.2465 19.9959 19.4512C19.9959 20.6559 19.0202 21.6319 17.8155 21.6319H12.3642C9.95478 21.6319 8.00322 19.6803 8.00322 17.2708V8.00365C8.00322 6.79891 8.97894 5.82313 10.1836 5.82313C11.3884 5.82313 12.3642 6.79897 12.3642 8.00365V10.1841H17.8155C19.0202 10.1841 19.9959 11.1599 19.9959 12.3646C19.9958 13.5693 19.0202 14.5452 17.8155 14.5452Z" fill="#010101"/>
</svg>
