<svg width="24" height="28" viewBox="0 0 24 28" fill="none" xmlns="http://www.w3.org/2000/svg">
<path d="M15.1719 19.4375V22.7344C15.1719 23.4323 14.9688 23.7812 14.5625 23.7812C14.3229 23.7812 14.0885 23.6667 13.8594 23.4375V18.7344C14.0885 18.5052 14.3229 18.3906 14.5625 18.3906C14.9688 18.3906 15.1719 18.7396 15.1719 19.4375ZM20.4531 19.4531V20.1719H19.0469V19.4531C19.0469 18.7448 19.2812 18.3906 19.75 18.3906C20.2188 18.3906 20.4531 18.7448 20.4531 19.4531ZM5.35938 16.0469H7.03125V14.5781H2.15625V16.0469H3.79688V24.9375H5.35938V16.0469ZM9.85938 24.9375H11.25V17.2188H9.85938V23.125C9.54688 23.5625 9.25 23.7812 8.96875 23.7812C8.78125 23.7812 8.67188 23.6719 8.64062 23.4531C8.63021 23.4219 8.625 23.2396 8.625 22.9062V17.2188H7.23438V23.3281C7.23438 23.8385 7.27604 24.2188 7.35938 24.4688C7.48438 24.8542 7.78646 25.0469 8.26562 25.0469C8.76562 25.0469 9.29688 24.7292 9.85938 24.0938V24.9375ZM16.5625 22.625V19.5469C16.5625 18.7865 16.5156 18.2708 16.4219 18C16.2448 17.4167 15.875 17.125 15.3125 17.125C14.7917 17.125 14.3073 17.4062 13.8594 17.9688V14.5781H12.4688V24.9375H13.8594V24.1875C14.3281 24.7604 14.8125 25.0469 15.3125 25.0469C15.875 25.0469 16.2448 24.7604 16.4219 24.1875C16.5156 23.9062 16.5625 23.3854 16.5625 22.625ZM21.8438 22.4688V22.2656H20.4219C20.4219 22.7969 20.4115 23.1146 20.3906 23.2188C20.3177 23.5938 20.1094 23.7812 19.7656 23.7812C19.2865 23.7812 19.0469 23.4219 19.0469 22.7031V21.3438H21.8438V19.7344C21.8438 18.9115 21.7031 18.3073 21.4219 17.9219C21.0156 17.3906 20.4635 17.125 19.7656 17.125C19.0573 17.125 18.5 17.3906 18.0938 17.9219C17.8021 18.3073 17.6562 18.9115 17.6562 19.7344V22.4375C17.6562 23.2604 17.8073 23.8646 18.1094 24.25C18.5156 24.7812 19.0781 25.0469 19.7969 25.0469C20.5469 25.0469 21.1094 24.7708 21.4844 24.2188C21.6719 23.9375 21.7812 23.6562 21.8125 23.375C21.8333 23.2812 21.8438 22.9792 21.8438 22.4688ZM12.3438 8.20312V4.92188C12.3438 4.20312 12.1198 3.84375 11.6719 3.84375C11.224 3.84375 11 4.20312 11 4.92188V8.20312C11 8.93229 11.224 9.29688 11.6719 9.29688C12.1198 9.29688 12.3438 8.93229 12.3438 8.20312ZM23.5781 19.9375C23.5781 22.375 23.4427 24.1979 23.1719 25.4062C23.026 26.0208 22.724 26.5365 22.2656 26.9531C21.8073 27.3698 21.276 27.6094 20.6719 27.6719C18.7552 27.8906 15.8646 28 12 28C8.13542 28 5.24479 27.8906 3.32812 27.6719C2.72396 27.6094 2.1901 27.3698 1.72656 26.9531C1.26302 26.5365 0.963542 26.0208 0.828125 25.4062C0.557292 24.2396 0.421875 22.4167 0.421875 19.9375C0.421875 17.5 0.557292 15.6771 0.828125 14.4688C0.973958 13.8542 1.27604 13.3385 1.73438 12.9219C2.19271 12.5052 2.72917 12.2604 3.34375 12.1875C5.25 11.9792 8.13542 11.875 12 11.875C15.8646 11.875 18.7552 11.9792 20.6719 12.1875C21.276 12.2604 21.8099 12.5052 22.2734 12.9219C22.737 13.3385 23.0365 13.8542 23.1719 14.4688C23.4427 15.6354 23.5781 17.4583 23.5781 19.9375ZM7.98438 0H9.57812L7.6875 6.23438V10.4688H6.125V6.23438C5.97917 5.46354 5.66146 4.35938 5.17188 2.92188C4.78646 1.84896 4.44792 0.875 4.15625 0H5.8125L6.92188 4.10938L7.98438 0ZM13.7656 5.20312V7.9375C13.7656 8.78125 13.6198 9.39583 13.3281 9.78125C12.9427 10.3125 12.3906 10.5781 11.6719 10.5781C10.974 10.5781 10.4271 10.3125 10.0312 9.78125C9.73958 9.38542 9.59375 8.77083 9.59375 7.9375V5.20312C9.59375 4.36979 9.73958 3.76042 10.0312 3.375C10.4271 2.84375 10.974 2.57812 11.6719 2.57812C12.3906 2.57812 12.9427 2.84375 13.3281 3.375C13.6198 3.76042 13.7656 4.36979 13.7656 5.20312ZM19 2.67188V10.4688H17.5781V9.60938C17.026 10.2552 16.4896 10.5781 15.9688 10.5781C15.4896 10.5781 15.1823 10.3854 15.0469 10C14.9635 9.75 14.9219 9.35938 14.9219 8.82812V2.67188H16.3438V8.40625C16.3438 8.75 16.349 8.93229 16.3594 8.95312C16.3906 9.18229 16.5 9.29688 16.6875 9.29688C16.9688 9.29688 17.2656 9.07292 17.5781 8.625V2.67188H19Z" fill="black"/>
</svg>
